<?xml version="1.0" encoding="iso-8859-1"?>
<!-- Uploaded to: SVG Repo, www.svgrepo.com, Generator: SVG Repo Mixer Tools -->
<svg height="800px" width="800px" version="1.1" id="Layer_1" xmlns="http://www.w3.org/2000/svg" xmlns:xlink="http://www.w3.org/1999/xlink" 
	 viewBox="0 0 512 512" xml:space="preserve">
<path style="fill:#C6C6C6;" d="M434.087,445.217h44.522c18.442,0,33.391,14.949,33.391,33.391l0,0
	C512,497.051,497.051,512,478.609,512H33.391C14.949,512,0,497.051,0,478.609l0,0c0-18.442,14.949-33.391,33.391-33.391h66.783
	H434.087z"/>
<path style="fill:#73A4BC;" d="M233.739,22.261C233.739,9.966,243.705,0,256,0h155.826c12.295,0,22.261,9.966,22.261,22.261v456.348
	H233.739V22.261z"/>
<path style="fill:#FF6029;" d="M100.174,200.348c0-12.295,9.966-22.261,22.261-22.261h155.826c12.295,0,22.261,9.966,22.261,22.261
	v278.261H100.174V200.348z"/>
<path style="fill:#B7441C;" d="M300.522,200.348v278.261h-66.783V178.087h44.522C290.556,178.087,300.522,188.053,300.522,200.348z"
	/>
<path style="fill:#777777;" d="M475.826,478.609c0,4.61-3.736,8.348-8.348,8.348H44.522c-4.611,0-8.348-3.738-8.348-8.348
	s3.736-8.348,8.348-8.348h422.957C472.09,470.261,475.826,473.998,475.826,478.609z"/>
</svg>